<svg xmlns="http://www.w3.org/2000/svg" width="960" height="120" viewBox="0 0 960 120"><g id="tick-0"><title>tick 0</title><rect x="0" y="0" width="160" height="120" fill="#ffffff" stroke="#d8d8d8" stroke-width="1"/><polyline points="12.000,96.062 16.387,96.572 20.774,96.581 25.161,96.201 29.548,95.623 33.935,95.049 38.323,94.644 42.710,94.525 47.097,94.768 51.484,95.413 55.871,96.471 60.258,97.929 64.645,99.748 69.032,101.872 73.419,104.227 77.806,106.726 82.194,106.726 86.581,104.227 90.968,101.872 95.355,99.748 99.742,97.929 104.129,96.471 108.516,95.413 112.903,94.768 117.290,94.525 121.677,94.644 126.065,95.049 130.452,95.623 134.839,96.201 139.226,96.581 143.613,96.572 148.000,96.062" fill="none" stroke="#555555" stroke-width="1.5"/></g><g id="tick-1"><title>tick 1</title><rect x="160" y="0" width="160" height="120" fill="#ffffff" stroke="#d8d8d8" stroke-width="1"/><polyline points="172.000,96.086 176.387,96.565 180.774,96.577 185.161,96.198 189.548,95.620 193.935,95.046 198.323,94.640 202.710,94.520 207.097,94.761 211.484,95.405 215.871,96.461 220.258,97.917 224.645,99.734 229.032,101.855 233.419,104.208 237.806,106.705 242.194,106.749 246.581,104.251 250.968,101.898 255.355,99.777 259.742,97.960 264.129,96.506 268.516,95.450 272.903,94.808 277.290,94.567 281.677,94.689 286.065,95.096 290.452,95.670 294.839,96.246 299.226,96.622 303.613,96.603 308.000,96.082" fill="none" stroke="#555555" stroke-width="1.5"/></g><g id="tick-4"><title>tick 4</title><rect x="320" y="0" width="160" height="120" fill="#ffffff" stroke="#d8d8d8" stroke-width="1"/><polyline points="332.000,96.160 336.387,96.547 340.774,96.565 345.161,96.189 349.548,95.613 353.935,95.038 358.323,94.629 362.710,94.504 367.097,94.741 371.484,95.379 375.871,96.431 380.258,97.880 384.645,99.691 389.032,101.806 393.419,104.152 397.806,106.642 402.194,106.817 406.581,104.326 410.968,101.980 415.355,99.865 419.742,98.056 424.129,96.609 428.516,95.562 432.903,94.928 437.290,94.695 441.677,94.824 446.065,95.236 450.452,95.811 454.839,96.381 459.226,96.741 463.613,96.695 468.000,96.138" fill="none" stroke="#555555" stroke-width="1.5"/></g><g id="tick-16"><title>tick 16</title><rect x="480" y="0" width="160" height="120" fill="#ffffff" stroke="#d8d8d8" stroke-width="1"/><polyline points="492.000,96.496 496.387,96.491 500.774,96.521 505.161,96.159 509.548,95.585 513.935,95.003 518.323,94.582 522.710,94.441 527.097,94.659 531.484,95.276 535.871,96.304 540.258,97.729 544.645,99.514 549.032,101.603 553.419,103.920 557.806,106.374 562.194,107.080 566.581,104.628 570.968,102.311 575.355,100.225 579.742,98.446 584.129,97.031 588.516,96.015 592.903,95.413 597.290,95.211 601.677,95.365 606.065,95.794 610.452,96.368 614.839,96.906 619.226,97.190 623.613,97.023 628.000,96.316" fill="none" stroke="#555555" stroke-width="1.5"/></g><g id="tick-64"><title>tick 64</title><rect x="640" y="0" width="160" height="120" fill="#ffffff" stroke="#d8d8d8" stroke-width="1"/><polyline points="652.000,98.412 656.387,96.505 660.774,96.433 665.161,96.070 669.548,95.488 673.935,94.873 678.323,94.397 682.710,94.186 687.097,94.320 691.484,94.842 695.871,95.764 700.258,97.074 704.645,98.734 709.032,100.686 713.419,102.851 717.806,105.106 722.194,107.013 726.581,105.830 730.968,103.742 735.355,101.816 739.742,100.181 744.129,98.901 748.516,98.014 752.903,97.529 757.290,97.425 761.677,97.640 766.065,98.062 770.452,98.512 774.839,98.743 779.226,98.503 783.613,97.651 788.000,96.237" fill="none" stroke="#555555" stroke-width="1.5"/></g><g id="tick-512"><title>tick 512</title><rect x="800" y="0" width="160" height="120" fill="#ffffff" stroke="#d8d8d8" stroke-width="1"/><polyline points="812.000,78.237 816.387,70.862 820.774,77.613 825.161,88.108 829.548,87.920 833.935,85.310 838.323,86.811 842.710,87.092 847.097,87.391 851.484,88.139 855.871,89.236 860.258,90.667 864.645,92.368 869.032,94.180 873.419,95.822 877.806,96.876 882.194,97.257 886.581,97.283 890.968,96.709 895.355,95.711 899.742,94.932 904.129,93.970 908.516,92.654 912.903,90.877 917.290,88.534 921.677,85.576 926.065,82.029 930.452,77.999 934.839,73.644 939.226,69.148 943.613,64.680 948.000,60.379" fill="none" stroke="#555555" stroke-width="1.5"/></g></svg>
